classDiagram

namespace pkg_autorisations{
  class Action
  class Autorisation 
  class Controller
}

namespace Spatie {
  class Permission 
}

Action "*" <-- "1" Controller
Autorisation --> "1" Action
Autorisation "*" <-- "1" Role
Action "1" --> "1" Permission
Action  "1" --> "*" Action : "actions permises avec lui"


namespace pkg_authentification {
class Role
}

class Permission {
  id: int
  name: string
  guard_name: string
}


class Role{
    + id : int
    + name: string 
    + description: text 
}


  class Action {
    id: int
    nom: string
  }

  class Autorisation {
    id: int
  }

  class Controller {
    id: int
    nom: string
  }










